<?xml version="1.0" encoding="utf-8"?>
<!-- Svg Vector Icons : http://www.onlinewebfonts.com/icon -->
<!DOCTYPE svg PUBLIC "-//W3C//DTD SVG 1.1//EN" "http://www.w3.org/Graphics/SVG/1.1/DTD/svg11.dtd">
<svg version="1.1" xmlns="http://www.w3.org/2000/svg" xmlns:xlink="http://www.w3.org/1999/xlink" x="0px" y="0px" viewBox="0 0 256 256" enable-background="new 0 0 256 256" xml:space="preserve">
<metadata> Svg Vector Icons : http://www.onlinewebfonts.com/icon </metadata>
<g> <path fill="#3d3d3d" d="M107.4,206.6c-53.8,0-97.4-43.7-97.4-97.5c0-53.8,43.7-97.4,97.5-97.4c53.8,0,97.4,43.6,97.4,97.5 C204.9,163,161.2,206.6,107.4,206.6z M107.4,27.2c-45.2,0-81.9,36.7-81.9,82c0,45.2,36.7,81.9,82,81.9c45.2,0,81.9-36.7,81.9-81.9 C189.3,63.9,152.7,27.3,107.4,27.2z"/> <path fill="#3d3d3d" d="M238.2,244.3c-2.1,0-4.1-0.8-5.5-2.3L167,176.3c-3-3-3-8,0-11c3-3,8-3,11,0l65.7,65.7c3,3,3,8,0,11 c0,0,0,0,0,0C242.3,243.5,240.3,244.3,238.2,244.3z"/> <path fill="#ea7f9b" d="M51.4,110.5c0,31.9,25.8,57.7,57.7,57.7s57.7-25.8,57.7-57.7c0-31.9-25.8-57.7-57.7-57.7 S51.4,78.7,51.4,110.5L51.4,110.5z"/></g>
</svg>